<svg width="1090" height="1090" viewBox="0 0 1090 1090" fill="none" xmlns="http://www.w3.org/2000/svg">
<path opacity="0.4" d="M716.316 659.509L811.22 494.835L720.052 494.835L625.148 659.509L716.316 659.509Z" fill="#03E4E5"/>
<path opacity="0.7" d="M413.552 668.231L468.102 762.894L510.546 836.531L556.128 757.433L459.135 589.14L413.552 668.231Z" fill="#03E4E5"/>
<path d="M565.584 751.966L862 751.966L768.828 590.283L722.643 670.429L612.539 670.356L561.633 583.655L468.593 583.655L565.584 751.966Z" fill="#03E4E5"/>
<path opacity="0.4" d="M565.584 762.886L519.987 842L816.403 842L862 762.886L565.584 762.886Z" fill="#03E4E5"/>
<path opacity="0.7" d="M623.237 489.383L571.087 578.197L615.658 654.106L710.593 489.378L562.385 232.201L469.214 393.884L567.17 393.884L623.237 489.383Z" fill="#03E4E5"/>
<path d="M811.22 483.915L663.004 226.722L571.836 226.722L720.091 483.915L811.22 483.915Z" fill="#03E4E5"/>
<path d="M607.37 483.915L560.923 404.802L365.516 404.802L411.107 483.915L607.37 483.915Z" fill="#03E4E5"/>
<path opacity="0.7" d="M356.061 410.269L207.845 667.447L253.397 746.491L401.612 489.313L356.061 410.269Z" fill="#03E4E5"/>
<path opacity="0.4" d="M455.969 572.737L561.622 572.737L607.359 494.843L411.105 494.843L262.851 751.974L449.194 751.974L400.942 668.239L455.969 572.737Z" fill="#03E4E5"/>
</svg>
