<svg width="350" height="85" viewBox="0 0 350 85" fill="none" xmlns="http://www.w3.org/2000/svg">
<path d="M79.6327 54.33C79.2643 54.33 78.9718 54.2325 78.7552 54.0375C78.5385 53.8425 78.3868 53.615 78.3002 53.355L71.6702 32.555C71.6268 32.4467 71.6052 32.3492 71.6052 32.2625C71.6052 32.0892 71.6702 31.9375 71.8002 31.8075C71.9518 31.6559 72.1252 31.58 72.3202 31.58H76.3502C76.6968 31.58 76.9677 31.6775 77.1627 31.8725C77.3577 32.0675 77.4768 32.2517 77.5202 32.425L82.1352 47.44L86.7177 32.425C86.7827 32.2517 86.9018 32.0675 87.0752 31.8725C87.2702 31.6775 87.541 31.58 87.8877 31.58H91.9502C92.1235 31.58 92.2752 31.6559 92.4052 31.8075C92.5568 31.9375 92.6327 32.0892 92.6327 32.2625C92.6327 32.3492 92.611 32.4467 92.5677 32.555L85.9377 53.355C85.8727 53.615 85.7318 53.8425 85.5152 54.0375C85.2985 54.2325 84.9952 54.33 84.6052 54.33H79.6327Z" fill="#002E84"/>
<path d="M101.364 54.655C98.8071 54.655 96.7704 53.9617 95.2537 52.575C93.7371 51.1884 92.9462 49.13 92.8812 46.4C92.8812 46.2484 92.8812 46.0534 92.8812 45.815C92.8812 45.5767 92.8812 45.3925 92.8812 45.2625C92.9462 43.5509 93.3254 42.0884 94.0187 40.875C94.7337 39.64 95.7087 38.7084 96.9437 38.08C98.2004 37.43 99.6629 37.105 101.331 37.105C103.238 37.105 104.809 37.4842 106.044 38.2425C107.3 39.0009 108.243 40.03 108.871 41.33C109.5 42.63 109.814 44.1142 109.814 45.7825V46.5625C109.814 46.8009 109.738 46.9959 109.586 47.1475C109.435 47.2992 109.24 47.375 109.001 47.375H98.6012C98.6012 47.3967 98.6012 47.4292 98.6012 47.4725C98.6012 47.5159 98.6012 47.5592 98.6012 47.6025C98.6229 48.2309 98.7312 48.805 98.9262 49.325C99.1429 49.845 99.4462 50.2567 99.8362 50.56C100.248 50.8634 100.746 51.015 101.331 51.015C101.765 51.015 102.122 50.95 102.404 50.82C102.707 50.6684 102.956 50.5059 103.151 50.3325C103.346 50.1375 103.498 49.975 103.606 49.845C103.801 49.6067 103.953 49.4659 104.061 49.4225C104.191 49.3575 104.386 49.325 104.646 49.325H108.676C108.893 49.325 109.066 49.39 109.196 49.52C109.348 49.65 109.413 49.8234 109.391 50.04C109.37 50.4084 109.185 50.8525 108.839 51.3725C108.492 51.8925 107.983 52.4125 107.311 52.9325C106.661 53.4309 105.838 53.8425 104.841 54.1675C103.845 54.4925 102.685 54.655 101.364 54.655ZM98.6012 44.1575H104.094V44.0925C104.094 43.3775 103.985 42.7709 103.769 42.2725C103.574 41.7525 103.26 41.3517 102.826 41.07C102.415 40.7884 101.916 40.6475 101.331 40.6475C100.768 40.6475 100.28 40.7884 99.8687 41.07C99.4571 41.3517 99.1429 41.7525 98.9262 42.2725C98.7096 42.7709 98.6012 43.3775 98.6012 44.0925V44.1575Z" fill="#002E84"/>
<path d="M113.673 54.33C113.435 54.33 113.24 54.2542 113.088 54.1025C112.936 53.9292 112.861 53.7342 112.861 53.5175V38.2425C112.861 38.0259 112.936 37.8417 113.088 37.69C113.24 37.5167 113.435 37.43 113.673 37.43H117.411C117.649 37.43 117.844 37.5167 117.996 37.69C118.169 37.8417 118.256 38.0259 118.256 38.2425V39.5425C118.819 38.8709 119.501 38.3509 120.303 37.9825C121.126 37.6142 122.047 37.43 123.066 37.43H124.496C124.734 37.43 124.929 37.5059 125.081 37.6575C125.232 37.8092 125.308 38.0042 125.308 38.2425V41.59C125.308 41.8067 125.232 42.0017 125.081 42.175C124.929 42.3267 124.734 42.4025 124.496 42.4025H121.343C120.455 42.4025 119.761 42.6517 119.263 43.15C118.786 43.6267 118.548 44.3092 118.548 45.1975V53.5175C118.548 53.7342 118.461 53.9292 118.288 54.1025C118.136 54.2542 117.941 54.33 117.703 54.33H113.673Z" fill="#002E84"/>
<path d="M128.431 54.33C128.193 54.33 127.998 54.2542 127.846 54.1025C127.695 53.9292 127.619 53.7342 127.619 53.5175V38.2425C127.619 38.0042 127.695 37.8092 127.846 37.6575C127.998 37.5059 128.193 37.43 128.431 37.43H132.266C132.505 37.43 132.7 37.5059 132.851 37.6575C133.003 37.8092 133.079 38.0042 133.079 38.2425V53.5175C133.079 53.7342 133.003 53.9292 132.851 54.1025C132.7 54.2542 132.505 54.33 132.266 54.33H128.431ZM128.399 34.9925C128.161 34.9925 127.966 34.9167 127.814 34.765C127.662 34.6134 127.586 34.4184 127.586 34.18V31.255C127.586 31.0384 127.662 30.8542 127.814 30.7025C127.966 30.5292 128.161 30.4425 128.399 30.4425H132.299C132.516 30.4425 132.7 30.5292 132.851 30.7025C133.025 30.8542 133.111 31.0384 133.111 31.255V34.18C133.111 34.4184 133.025 34.6134 132.851 34.765C132.7 34.9167 132.516 34.9925 132.299 34.9925H128.399Z" fill="#002E84"/>
<path d="M139.648 54.33C139.432 54.33 139.237 54.2542 139.063 54.1025C138.912 53.9292 138.836 53.7342 138.836 53.5175V41.6875H136.366C136.127 41.6875 135.932 41.6117 135.781 41.46C135.629 41.3084 135.553 41.1134 135.553 40.875V38.2425C135.553 38.0042 135.629 37.8092 135.781 37.6575C135.932 37.5059 136.127 37.43 136.366 37.43H138.836V36.39C138.836 34.9167 139.117 33.7359 139.681 32.8475C140.266 31.9375 141.089 31.2875 142.151 30.8975C143.212 30.4859 144.48 30.28 145.953 30.28H148.488C148.727 30.28 148.922 30.3559 149.073 30.5075C149.225 30.6592 149.301 30.8542 149.301 31.0925V33.725C149.301 33.9634 149.225 34.1584 149.073 34.31C148.922 34.4617 148.727 34.5375 148.488 34.5375H146.213C145.477 34.5375 144.957 34.7109 144.653 35.0575C144.372 35.4042 144.231 35.9025 144.231 36.5525V37.43H148.163C148.402 37.43 148.597 37.5059 148.748 37.6575C148.9 37.8092 148.976 38.0042 148.976 38.2425V40.875C148.976 41.1134 148.9 41.3084 148.748 41.46C148.597 41.6117 148.402 41.6875 148.163 41.6875H144.231V53.5175C144.231 53.7342 144.155 53.9292 144.003 54.1025C143.852 54.2542 143.657 54.33 143.418 54.33H139.648Z" fill="#002E84"/>
<path d="M152.14 54.33C151.902 54.33 151.707 54.2542 151.555 54.1025C151.403 53.9292 151.327 53.7342 151.327 53.5175V38.2425C151.327 38.0042 151.403 37.8092 151.555 37.6575C151.707 37.5059 151.902 37.43 152.14 37.43H155.975C156.213 37.43 156.408 37.5059 156.56 37.6575C156.712 37.8092 156.787 38.0042 156.787 38.2425V53.5175C156.787 53.7342 156.712 53.9292 156.56 54.1025C156.408 54.2542 156.213 54.33 155.975 54.33H152.14ZM152.107 34.9925C151.869 34.9925 151.674 34.9167 151.522 34.765C151.371 34.6134 151.295 34.4184 151.295 34.18V31.255C151.295 31.0384 151.371 30.8542 151.522 30.7025C151.674 30.5292 151.869 30.4425 152.107 30.4425H156.007C156.224 30.4425 156.408 30.5292 156.56 30.7025C156.733 30.8542 156.82 31.0384 156.82 31.255V34.18C156.82 34.4184 156.733 34.6134 156.56 34.765C156.408 34.9167 156.224 34.9925 156.007 34.9925H152.107Z" fill="#002E84"/>
<path d="M168.427 54.655C165.87 54.655 163.833 53.9617 162.317 52.575C160.8 51.1884 160.009 49.13 159.944 46.4C159.944 46.2484 159.944 46.0534 159.944 45.815C159.944 45.5767 159.944 45.3925 159.944 45.2625C160.009 43.5509 160.388 42.0884 161.082 40.875C161.797 39.64 162.772 38.7084 164.007 38.08C165.263 37.43 166.726 37.105 168.394 37.105C170.301 37.105 171.872 37.4842 173.107 38.2425C174.363 39.0009 175.306 40.03 175.934 41.33C176.563 42.63 176.877 44.1142 176.877 45.7825V46.5625C176.877 46.8009 176.801 46.9959 176.649 47.1475C176.498 47.2992 176.303 47.375 176.064 47.375H165.664C165.664 47.3967 165.664 47.4292 165.664 47.4725C165.664 47.5159 165.664 47.5592 165.664 47.6025C165.686 48.2309 165.794 48.805 165.989 49.325C166.206 49.845 166.509 50.2567 166.899 50.56C167.311 50.8634 167.809 51.015 168.394 51.015C168.828 51.015 169.185 50.95 169.467 50.82C169.77 50.6684 170.019 50.5059 170.214 50.3325C170.409 50.1375 170.561 49.975 170.669 49.845C170.864 49.6067 171.016 49.4659 171.124 49.4225C171.254 49.3575 171.449 49.325 171.709 49.325H175.739C175.956 49.325 176.129 49.39 176.259 49.52C176.411 49.65 176.476 49.8234 176.454 50.04C176.433 50.4084 176.248 50.8525 175.902 51.3725C175.555 51.8925 175.046 52.4125 174.374 52.9325C173.724 53.4309 172.901 53.8425 171.904 54.1675C170.908 54.4925 169.748 54.655 168.427 54.655ZM165.664 44.1575H171.157V44.0925C171.157 43.3775 171.048 42.7709 170.832 42.2725C170.637 41.7525 170.323 41.3517 169.889 41.07C169.478 40.7884 168.979 40.6475 168.394 40.6475C167.831 40.6475 167.343 40.7884 166.932 41.07C166.52 41.3517 166.206 41.7525 165.989 42.2725C165.773 42.7709 165.664 43.3775 165.664 44.0925V44.1575Z" fill="#002E84"/>
<path d="M180.736 54.33C180.498 54.33 180.303 54.2542 180.151 54.1025C179.999 53.9292 179.924 53.7342 179.924 53.5175V38.2425C179.924 38.0259 179.999 37.8417 180.151 37.69C180.303 37.5167 180.498 37.43 180.736 37.43H184.474C184.712 37.43 184.907 37.5167 185.059 37.69C185.232 37.8417 185.319 38.0259 185.319 38.2425V39.5425C185.882 38.8709 186.564 38.3509 187.366 37.9825C188.189 37.6142 189.11 37.43 190.129 37.43H191.559C191.797 37.43 191.992 37.5059 192.144 37.6575C192.295 37.8092 192.371 38.0042 192.371 38.2425V41.59C192.371 41.8067 192.295 42.0017 192.144 42.175C191.992 42.3267 191.797 42.4025 191.559 42.4025H188.406C187.518 42.4025 186.824 42.6517 186.326 43.15C185.849 43.6267 185.611 44.3092 185.611 45.1975V53.5175C185.611 53.7342 185.524 53.9292 185.351 54.1025C185.199 54.2542 185.004 54.33 184.766 54.33H180.736Z" fill="#002E84"/>
<path d="M199.198 54.33C199.025 54.33 198.863 54.265 198.711 54.135C198.581 53.9834 198.516 53.8209 198.516 53.6475C198.516 53.5392 198.527 53.4417 198.548 53.355L206.186 32.49C206.251 32.2517 206.381 32.0459 206.576 31.8725C206.793 31.6775 207.085 31.58 207.453 31.58H212.263C212.632 31.58 212.913 31.6775 213.108 31.8725C213.325 32.0459 213.466 32.2517 213.531 32.49L221.136 53.355C221.179 53.4417 221.201 53.5392 221.201 53.6475C221.201 53.8209 221.125 53.9834 220.973 54.135C220.843 54.265 220.681 54.33 220.486 54.33H216.488C216.163 54.33 215.914 54.2542 215.741 54.1025C215.589 53.9292 215.492 53.7775 215.448 53.6475L214.181 50.3325H205.503L204.268 53.6475C204.225 53.7775 204.128 53.9292 203.976 54.1025C203.824 54.2542 203.564 54.33 203.196 54.33H199.198ZM206.836 45.6525H212.881L209.858 37.0725L206.836 45.6525Z" fill="#002E84"/>
<path d="M224.218 54.33C223.979 54.33 223.784 54.2542 223.633 54.1025C223.481 53.9292 223.405 53.7342 223.405 53.5175V32.0675C223.405 31.8292 223.481 31.6342 223.633 31.4825C223.784 31.3309 223.979 31.255 224.218 31.255H228.053C228.291 31.255 228.486 31.3309 228.638 31.4825C228.789 31.6342 228.865 31.8292 228.865 32.0675V53.5175C228.865 53.7342 228.789 53.9292 228.638 54.1025C228.486 54.2542 228.291 54.33 228.053 54.33H224.218Z" fill="#002E84"/>
<path d="M233.517 54.33C233.279 54.33 233.084 54.2542 232.932 54.1025C232.78 53.9292 232.704 53.7342 232.704 53.5175V32.0675C232.704 31.8292 232.78 31.6342 232.932 31.4825C233.084 31.3309 233.279 31.255 233.517 31.255H237.352C237.59 31.255 237.785 31.3309 237.937 31.4825C238.089 31.6342 238.164 31.8292 238.164 32.0675V53.5175C238.164 53.7342 238.089 53.9292 237.937 54.1025C237.785 54.2542 237.59 54.33 237.352 54.33H233.517Z" fill="#002E84"/>
<path d="M242.816 54.33C242.578 54.33 242.383 54.2542 242.231 54.1025C242.08 53.9292 242.004 53.7342 242.004 53.5175V38.2425C242.004 38.0042 242.08 37.8092 242.231 37.6575C242.383 37.5059 242.578 37.43 242.816 37.43H246.651C246.89 37.43 247.085 37.5059 247.236 37.6575C247.388 37.8092 247.464 38.0042 247.464 38.2425V53.5175C247.464 53.7342 247.388 53.9292 247.236 54.1025C247.085 54.2542 246.89 54.33 246.651 54.33H242.816ZM242.784 34.9925C242.545 34.9925 242.35 34.9167 242.199 34.765C242.047 34.6134 241.971 34.4184 241.971 34.18V31.255C241.971 31.0384 242.047 30.8542 242.199 30.7025C242.35 30.5292 242.545 30.4425 242.784 30.4425H246.684C246.9 30.4425 247.085 30.5292 247.236 30.7025C247.41 30.8542 247.496 31.0384 247.496 31.255V34.18C247.496 34.4184 247.41 34.6134 247.236 34.765C247.085 34.9167 246.9 34.9925 246.684 34.9925H242.784Z" fill="#002E84"/>
<path d="M256.373 54.655C255.203 54.655 254.152 54.4384 253.22 54.005C252.31 53.55 251.585 52.9434 251.043 52.185C250.501 51.4267 250.23 50.5709 250.23 49.6175C250.23 48.0792 250.859 46.8659 252.115 45.9775C253.372 45.0675 255.04 44.45 257.12 44.125L261.183 43.5075V43.0525C261.183 42.2725 261.02 41.6767 260.695 41.265C260.37 40.8534 259.775 40.6475 258.908 40.6475C258.301 40.6475 257.803 40.7667 257.413 41.005C257.045 41.2434 256.752 41.5684 256.535 41.98C256.34 42.2617 256.07 42.4025 255.723 42.4025H252.083C251.845 42.4025 251.66 42.3375 251.53 42.2075C251.4 42.0559 251.346 41.8825 251.368 41.6875C251.368 41.2975 251.509 40.8534 251.79 40.355C252.094 39.835 252.549 39.3259 253.155 38.8275C253.762 38.3292 254.542 37.9175 255.495 37.5925C256.449 37.2675 257.608 37.105 258.973 37.105C260.36 37.105 261.551 37.2675 262.548 37.5925C263.545 37.9175 264.357 38.3725 264.985 38.9575C265.614 39.5425 266.069 40.2359 266.35 41.0375C266.654 41.8175 266.805 42.6842 266.805 43.6375V53.5175C266.805 53.7342 266.719 53.9292 266.545 54.1025C266.394 54.2542 266.21 54.33 265.993 54.33H262.223C261.985 54.33 261.79 54.2542 261.638 54.1025C261.486 53.9292 261.41 53.7342 261.41 53.5175V52.38C261.129 52.7917 260.75 53.1709 260.273 53.5175C259.796 53.8642 259.233 54.135 258.583 54.33C257.955 54.5467 257.218 54.655 256.373 54.655ZM257.9 50.95C258.529 50.95 259.092 50.82 259.59 50.56C260.11 50.2784 260.511 49.8559 260.793 49.2925C261.096 48.7075 261.248 47.9817 261.248 47.115V46.66L258.485 47.1475C257.467 47.3209 256.72 47.5917 256.243 47.96C255.788 48.3067 255.56 48.7184 255.56 49.195C255.56 49.5634 255.669 49.8775 255.885 50.1375C256.102 50.3975 256.384 50.6034 256.73 50.755C257.099 50.885 257.489 50.95 257.9 50.95Z" fill="#002E84"/>
<path d="M271.285 54.33C271.047 54.33 270.852 54.2542 270.7 54.1025C270.549 53.9292 270.473 53.7342 270.473 53.5175V38.2425C270.473 38.0042 270.549 37.8092 270.7 37.6575C270.852 37.5059 271.047 37.43 271.285 37.43H275.023C275.261 37.43 275.456 37.5059 275.608 37.6575C275.781 37.8092 275.868 38.0042 275.868 38.2425V39.4775C276.41 38.8059 277.135 38.2425 278.045 37.7875C278.955 37.3325 280.028 37.105 281.263 37.105C282.52 37.105 283.625 37.3867 284.578 37.95C285.553 38.5134 286.311 39.3367 286.853 40.42C287.416 41.5034 287.698 42.8467 287.698 44.45V53.5175C287.698 53.7342 287.622 53.9292 287.47 54.1025C287.319 54.2542 287.124 54.33 286.885 54.33H282.79C282.574 54.33 282.379 54.2542 282.205 54.1025C282.054 53.9292 281.978 53.7342 281.978 53.5175V44.645C281.978 43.6267 281.729 42.8467 281.23 42.305C280.754 41.7417 280.039 41.46 279.085 41.46C278.197 41.46 277.482 41.7417 276.94 42.305C276.42 42.8467 276.16 43.6267 276.16 44.645V53.5175C276.16 53.7342 276.074 53.9292 275.9 54.1025C275.749 54.2542 275.565 54.33 275.348 54.33H271.285Z" fill="#002E84"/>
<path d="M299.124 54.655C297.521 54.655 296.102 54.3625 294.867 53.7775C293.632 53.1925 292.646 52.3475 291.909 51.2425C291.194 50.1159 290.804 48.7725 290.739 47.2125C290.718 46.8659 290.707 46.4325 290.707 45.9125C290.707 45.3709 290.718 44.9267 290.739 44.58C290.804 42.9984 291.194 41.655 291.909 40.55C292.624 39.4234 293.599 38.5675 294.834 37.9825C296.091 37.3975 297.521 37.105 299.124 37.105C300.619 37.105 301.898 37.3217 302.959 37.755C304.043 38.1667 304.909 38.6867 305.559 39.315C306.231 39.9434 306.729 40.5934 307.054 41.265C307.401 41.915 307.585 42.4892 307.607 42.9875C307.628 43.2042 307.553 43.3992 307.379 43.5725C307.206 43.7242 307.011 43.8 306.794 43.8H302.667C302.428 43.8 302.244 43.7459 302.114 43.6375C301.984 43.5292 301.865 43.3667 301.757 43.15C301.497 42.4784 301.161 42.0017 300.749 41.72C300.359 41.4384 299.85 41.2975 299.222 41.2975C298.355 41.2975 297.683 41.5792 297.207 42.1425C296.752 42.7059 296.503 43.5725 296.459 44.7425C296.438 45.6092 296.438 46.3784 296.459 47.05C296.524 48.2417 296.784 49.1084 297.239 49.65C297.694 50.1917 298.355 50.4625 299.222 50.4625C299.893 50.4625 300.424 50.3217 300.814 50.04C301.204 49.7367 301.518 49.26 301.757 48.61C301.865 48.3934 301.984 48.2309 302.114 48.1225C302.244 48.0142 302.428 47.96 302.667 47.96H306.794C307.011 47.96 307.206 48.0359 307.379 48.1875C307.553 48.3392 307.628 48.5342 307.607 48.7725C307.585 49.1192 307.477 49.5417 307.282 50.04C307.087 50.5384 306.783 51.0584 306.372 51.6C305.96 52.1417 305.418 52.64 304.747 53.095C304.097 53.55 303.306 53.9292 302.374 54.2325C301.443 54.5142 300.359 54.655 299.124 54.655Z" fill="#002E84"/>
<path d="M318.327 54.655C315.77 54.655 313.733 53.9617 312.217 52.575C310.7 51.1884 309.909 49.13 309.844 46.4C309.844 46.2484 309.844 46.0534 309.844 45.815C309.844 45.5767 309.844 45.3925 309.844 45.2625C309.909 43.5509 310.288 42.0884 310.982 40.875C311.697 39.64 312.672 38.7084 313.907 38.08C315.163 37.43 316.626 37.105 318.294 37.105C320.201 37.105 321.772 37.4842 323.007 38.2425C324.263 39.0009 325.206 40.03 325.834 41.33C326.462 42.63 326.777 44.1142 326.777 45.7825V46.5625C326.777 46.8009 326.701 46.9959 326.549 47.1475C326.397 47.2992 326.202 47.375 325.964 47.375H315.564C315.564 47.3967 315.564 47.4292 315.564 47.4725C315.564 47.5159 315.564 47.5592 315.564 47.6025C315.586 48.2309 315.694 48.805 315.889 49.325C316.106 49.845 316.409 50.2567 316.799 50.56C317.211 50.8634 317.709 51.015 318.294 51.015C318.727 51.015 319.085 50.95 319.367 50.82C319.67 50.6684 319.919 50.5059 320.114 50.3325C320.309 50.1375 320.461 49.975 320.569 49.845C320.764 49.6067 320.916 49.4659 321.024 49.4225C321.154 49.3575 321.349 49.325 321.609 49.325H325.639C325.856 49.325 326.029 49.39 326.159 49.52C326.311 49.65 326.376 49.8234 326.354 50.04C326.332 50.4084 326.148 50.8525 325.802 51.3725C325.455 51.8925 324.946 52.4125 324.274 52.9325C323.624 53.4309 322.801 53.8425 321.804 54.1675C320.807 54.4925 319.648 54.655 318.327 54.655ZM315.564 44.1575H321.057V44.0925C321.057 43.3775 320.948 42.7709 320.732 42.2725C320.537 41.7525 320.222 41.3517 319.789 41.07C319.377 40.7884 318.879 40.6475 318.294 40.6475C317.731 40.6475 317.243 40.7884 316.832 41.07C316.42 41.3517 316.106 41.7525 315.889 42.2725C315.672 42.7709 315.564 43.3775 315.564 44.0925V44.1575Z" fill="#002E84"/>
<path d="M36.9407 25.0345C37.2944 23.8285 38.4006 23.0001 39.6574 23.0001H44.8093C45.1823 23.0001 45.4534 23.3545 45.3557 23.7145L38.438 49.22C38.1034 50.4535 36.9838 51.3099 35.7057 51.3099H31.8448C30.5679 51.3099 29.449 50.4551 29.1134 49.223L26.7802 40.6583L28.8921 41.4957C30.4413 42.1099 32.1832 41.2597 32.6521 39.6605L36.9407 25.0345Z" fill="#002E84"/>
<path d="M26.6166 39.0353C30.3438 38.0366 27.2688 32.4711 31.557 30.4783C26.8168 30.784 26.7272 24.5392 23 25.5379L26.6166 39.0353Z" fill="#002E84"/>
<path d="M48.9281 59.9656C48.5745 61.1715 47.4682 62 46.2115 62L41.0596 62C40.6866 62 40.4155 61.6456 40.5131 61.2856L47.4309 35.7801C47.7654 34.5465 48.885 33.6902 50.1631 33.6902L54.024 33.6902C55.3009 33.6902 56.4198 34.545 56.7554 35.777L59.0887 44.3417L56.9767 43.5044C55.4275 42.8902 53.6856 43.7404 53.2167 45.3395L48.9281 59.9656Z" fill="#002E84"/>
<path d="M59.2522 45.9647C55.525 46.9634 58.6 52.5289 54.3118 54.5217C59.0521 54.216 59.1416 60.4608 62.8688 59.4621L59.2522 45.9647Z" fill="#002E84"/>
</svg>
