<svg width="512" height="512" viewBox="0 0 512 512" fill="none" xmlns="http://www.w3.org/2000/svg">
<path d="M277.333 64H256V85.3333H277.333V64Z" fill="#004802"/>
<path d="M234.667 64H256V85.3333H234.667V64Z" fill="#004802"/>
<path d="M298.667 64H277.333V85.3333H298.667V64Z" fill="#004802"/>
<path d="M213.333 64H234.667V85.3333H213.333V64Z" fill="#004802"/>
<path d="M320 64H298.667V85.3333H320V64Z" fill="#004802"/>
<path d="M192 64H213.333V85.3333H192V64Z" fill="#004802"/>
<path d="M277.333 85.3335H256V106.667H277.333V85.3335Z" fill="#D0FBB2"/>
<path d="M298.667 85.3335H277.333V106.667H298.667V85.3335Z" fill="#EBFBE5"/>
<path d="M320 85.3335H298.667V106.667H320V85.3335Z" fill="#D0FBB2"/>
<path d="M341.333 85.3335H320V106.667H341.333V85.3335Z" fill="#004802"/>
<path d="M170.667 85.3335H192V106.667H170.667V85.3335Z" fill="#004802"/>
<path d="M277.333 106.667H256V128H277.333V106.667Z" fill="#EBFBE5"/>
<path d="M298.667 106.667H277.333V128H298.667V106.667Z" fill="#D0FBB2"/>
<path d="M320 106.667H298.667V128H320V106.667Z" fill="#D0FBB2"/>
<path d="M341.333 106.667H320V128H341.333V106.667Z" fill="#EBFBE5"/>
<path d="M362.667 85.3335H341.333V106.667H362.667V85.3335Z" fill="#004802"/>
<path d="M170.667 85.3335H149.333V106.667H170.667V85.3335Z" fill="#004802"/>
<path d="M384 106.667H362.667V128H384V106.667Z" fill="#004802"/>
<path d="M128 106.667H149.333V128H128V106.667Z" fill="#004802"/>
<path d="M277.333 128H256V149.333H277.333V128Z" fill="#EBFBE5"/>
<path d="M298.667 128H277.333V149.333H298.667V128Z" fill="#EBFBE5"/>
<path d="M320 128H298.667V149.333H320V128Z" fill="#57DF37"/>
<path d="M405.333 128H384V149.333H405.333V128Z" fill="#004802"/>
<path d="M106.667 128H128V149.333H106.667V128Z" fill="#004802"/>
<path d="M426.667 128H405.333V149.333H426.667V128Z" fill="#004802"/>
<path d="M85.3333 128H106.667V149.333H85.3333V128Z" fill="#004802"/>
<path d="M277.333 149.333H256V170.667H277.333V149.333Z" fill="#7EFC65"/>
<path d="M298.667 149.333H277.333V170.667H298.667V149.333Z" fill="#EBFBE5"/>
<path d="M320 149.333H298.667V170.667H320V149.333Z" fill="#57DF37"/>
<path d="M405.333 149.333H384V170.667H405.333V149.333Z" fill="#57DF37"/>
<path d="M426.667 149.333H405.333V170.667H426.667V149.333Z" fill="#EBFBE5"/>
<path d="M448 149.333H426.667V170.667H448V149.333Z" fill="#004802"/>
<path d="M64 149.333H85.3334V170.667H64V149.333Z" fill="#004802"/>
<path d="M277.333 170.667H256V192H277.333V170.667Z" fill="#7EFC65"/>
<path d="M298.667 170.667H277.333V192H298.667V170.667Z" fill="#D0FBB2"/>
<path d="M320 170.667H298.667V192H320V170.667Z" fill="#D0FBB2"/>
<path d="M405.333 170.667H384V192H405.333V170.667Z" fill="#7EFC65"/>
<path d="M426.667 170.667H405.333V192H426.667V170.667Z" fill="#57DF37"/>
<path d="M448 170.667H426.667V192H448V170.667Z" fill="#57DF37"/>
<path d="M469.333 170.667H448V192H469.333V170.667Z" fill="#004802"/>
<path d="M42.6667 170.667H64V192H42.6667V170.667Z" fill="#004802"/>
<path d="M277.333 213.333H256V234.667H277.333V213.333Z" fill="#D0FBB2"/>
<path d="M277.333 192H256V213.333H277.333V192Z" fill="#EBFBE5"/>
<path d="M320 192H298.667V213.333H320V192Z" fill="#EBFBE5"/>
<path d="M341.333 192H320V213.333H341.333V192Z" fill="#D0FBB2"/>
<path d="M362.667 192H341.333V213.333H362.667V192Z" fill="#EBFBE5"/>
<path d="M384 192H362.667V213.333H384V192Z" fill="#7EFC65"/>
<path d="M405.333 192H384V213.333H405.333V192Z" fill="#EBFBE5"/>
<path d="M426.667 192H405.333V213.333H426.667V192Z" fill="#EBFBE5"/>
<path d="M448 192H426.667V213.333H448V192Z" fill="#57DF37"/>
<path d="M469.333 192H448V213.333H469.333V192Z" fill="#004802"/>
<path d="M42.6667 192H64V213.333H42.6667V192Z" fill="#004802"/>
<path d="M298.667 192H277.333V213.333H298.667V192Z" fill="#EBFBE5"/>
<path d="M298.667 213.333H277.333V234.667H298.667V213.333Z" fill="#57DF37"/>
<path d="M320 213.333H298.667V234.667H320V213.333Z" fill="#F0F5D3"/>
<path d="M341.333 213.333H320V234.667H341.333V213.333Z" fill="#D0FBB2"/>
<path d="M362.667 213.333H341.333V234.667H362.667V213.333Z" fill="#EBFBE5"/>
<path d="M384 213.333H362.667V234.667H384V213.333Z" fill="#EBFBE5"/>
<path d="M405.333 213.333H384V234.667H405.333V213.333Z" fill="#57DF37"/>
<path d="M426.667 213.333H405.333V234.667H426.667V213.333Z" fill="#EBFBE5"/>
<path d="M277.333 234.667H256V256H277.333V234.667Z" fill="#FF9EA6"/>
<path d="M298.667 234.667H277.333V256H298.667V234.667Z" fill="#FF9EA6"/>
<path d="M320 234.667H298.667V256H320V234.667Z" fill="#F6738C"/>
<path d="M341.333 234.667H320V256H341.333V234.667Z" fill="#EBFBE5"/>
<path d="M362.667 234.667H341.333V256H362.667V234.667Z" fill="#D0FBB2"/>
<path d="M384 234.667H362.667V256H384V234.667Z" fill="#EBFBE5"/>
<path d="M448 256H426.667V277.333H448V256Z" fill="#DDDDF9"/>
<path d="M64 256H85.3334V277.333H64V256Z" fill="#DDDDF9"/>
<path d="M405.333 277.333H384V298.667H405.333V277.333Z" fill="#DDDDF9"/>
<path d="M106.667 277.333H128V298.667H106.667V277.333Z" fill="#DDDDF9"/>
<path d="M426.667 277.333H405.333V298.667H426.667V277.333Z" fill="#DDDDF9"/>
<path d="M85.3333 277.333H106.667V298.667H85.3333V277.333Z" fill="#DDDDF9"/>
<path d="M448 277.333H426.667V298.667H448V277.333Z" fill="#DDDDF9"/>
<path d="M64 277.333H85.3334V298.667H64V277.333Z" fill="#DDDDF9"/>
<path d="M277.333 298.667H256V320H277.333V298.667Z" fill="#DDDDF9"/>
<path d="M234.667 298.667H256V320H234.667V298.667Z" fill="#DDDDF9"/>
<path d="M298.667 298.667H277.333V320H298.667V298.667Z" fill="#DDDDF9"/>
<path d="M213.333 298.667H234.667V320H213.333V298.667Z" fill="#DDDDF9"/>
<path d="M320 298.667H298.667V320H320V298.667Z" fill="#DDDDF9"/>
<path d="M192 298.667H213.333V320H192V298.667Z" fill="#DDDDF9"/>
<path d="M341.333 298.667H320V320H341.333V298.667Z" fill="#DDDDF9"/>
<path d="M170.667 298.667H192V320H170.667V298.667Z" fill="#DDDDF9"/>
<path d="M362.667 298.667H341.333V320H362.667V298.667Z" fill="#DDDDF9"/>
<path d="M149.333 298.667H170.667V320H149.333V298.667Z" fill="#DDDDF9"/>
<path d="M384 298.667H362.667V320H384V298.667Z" fill="#DDDDF9"/>
<path d="M128 298.667H149.333V320H128V298.667Z" fill="#DDDDF9"/>
<path d="M405.333 298.667H384V320H405.333V298.667Z" fill="#DDDDF9"/>
<path d="M106.667 298.667H128V320H106.667V298.667Z" fill="#DDDDF9"/>
<path d="M277.333 320H256V341.333H277.333V320Z" fill="#DDDDF9"/>
<path d="M234.667 320H256V341.333H234.667V320Z" fill="#DDDDF9"/>
<path d="M298.667 320H277.333V341.333H298.667V320Z" fill="#DDDDF9"/>
<path d="M213.333 320H234.667V341.333H213.333V320Z" fill="#DDDDF9"/>
<path d="M320 320H298.667V341.333H320V320Z" fill="#DDDDF9"/>
<path d="M192 320H213.333V341.333H192V320Z" fill="#DDDDF9"/>
<path d="M341.333 320H320V341.333H341.333V320Z" fill="#DDDDF9"/>
<path d="M170.667 320H192V341.333H170.667V320Z" fill="#DDDDF9"/>
<path d="M362.667 320H341.333V341.333H362.667V320Z" fill="#DDDDF9"/>
<path d="M149.333 320H170.667V341.333H149.333V320Z" fill="#DDDDF9"/>
<path d="M384 320H362.667V341.333H384V320Z" fill="#DDDDF9"/>
<path d="M128 320H149.333V341.333H128V320Z" fill="#DDDDF9"/>
<path d="M277.333 341.333H256V362.667H277.333V341.333Z" fill="#DDDDF9"/>
<path d="M234.667 341.333H256V362.667H234.667V341.333Z" fill="#DDDDF9"/>
<path d="M298.667 341.333H277.333V362.667H298.667V341.333Z" fill="#DDDDF9"/>
<path d="M213.333 341.333H234.667V362.667H213.333V341.333Z" fill="#DDDDF9"/>
<path d="M320 341.333H298.667V362.667H320V341.333Z" fill="#DDDDF9"/>
<path d="M192 341.333H213.333V362.667H192V341.333Z" fill="#DDDDF9"/>
<path d="M341.333 341.333H320V362.667H341.333V341.333Z" fill="#DDDDF9"/>
<path d="M170.667 341.333H192V362.667H170.667V341.333Z" fill="#DDDDF9"/>
<path d="M362.667 341.333H341.333V362.667H362.667V341.333Z" fill="#DDDDF9"/>
<path d="M149.333 341.333H170.667V362.667H149.333V341.333Z" fill="#DDDDF9"/>
<path d="M277.333 362.667H256V384H277.333V362.667Z" fill="#DDDDF9"/>
<path d="M234.667 362.667H256V384H234.667V362.667Z" fill="#DDDDF9"/>
<path d="M298.667 362.667H277.333V384H298.667V362.667Z" fill="#DDDDF9"/>
<path d="M213.333 362.667H234.667V384H213.333V362.667Z" fill="#DDDDF9"/>
<path d="M320 362.667H298.667V384H320V362.667Z" fill="#DDDDF9"/>
<path d="M192 362.667H213.333V384H192V362.667Z" fill="#DDDDF9"/>
<path d="M341.333 362.667H320V384H341.333V362.667Z" fill="#DDDDF9"/>
<path d="M170.667 362.667H192V384H170.667V362.667Z" fill="#DDDDF9"/>
<path d="M277.333 384H256V405.333H277.333V384Z" fill="#DDDDF9"/>
<path d="M234.667 384H256V405.333H234.667V384Z" fill="#DDDDF9"/>
<path d="M298.667 384H277.333V405.333H298.667V384Z" fill="#DDDDF9"/>
<path d="M213.333 384H234.667V405.333H213.333V384Z" fill="#DDDDF9"/>
<path d="M426.667 298.667H405.333V320H426.667V298.667Z" fill="#DDDDF9"/>
<path d="M85.3333 298.667H106.667V320H85.3333V298.667Z" fill="#DDDDF9"/>
<path d="M405.333 320H384V341.333H405.333V320Z" fill="#DDDDF9"/>
<path d="M106.667 320H128V341.333H106.667V320Z" fill="#DDDDF9"/>
<path d="M384 341.333H362.667V362.666H384V341.333Z" fill="#DDDDF9"/>
<path d="M128 341.333H149.333V362.666H128V341.333Z" fill="#DDDDF9"/>
<path d="M362.667 362.667H341.333V384H362.667V362.667Z" fill="#DDDDF9"/>
<path d="M149.333 362.667H170.667V384H149.333V362.667Z" fill="#DDDDF9"/>
<path d="M448 234.667H426.667V256H448V234.667Z" fill="#BFB6F9"/>
<path d="M64 234.667H85.3334V256H64V234.667Z" fill="#BFB6F9"/>
<path d="M405.333 256H384V277.333H405.333V256Z" fill="#BFB6F9"/>
<path d="M426.667 256H405.333V277.333H426.667V256Z" fill="#BFB6F9"/>
<path d="M85.3333 256H106.667V277.333H85.3333V256Z" fill="#BFB6F9"/>
<path d="M106.667 256H128V277.333H106.667V256Z" fill="#BFB6F9"/>
<path d="M277.333 277.333H256V298.666H277.333V277.333Z" fill="#BFB6F9"/>
<path d="M234.667 277.333H256V298.666H234.667V277.333Z" fill="#BFB6F9"/>
<path d="M298.667 277.333H277.333V298.666H298.667V277.333Z" fill="#BFB6F9"/>
<path d="M213.333 277.333H234.667V298.666H213.333V277.333Z" fill="#BFB6F9"/>
<path d="M320 277.333H298.667V298.666H320V277.333Z" fill="#BFB6F9"/>
<path d="M192 277.333H213.333V298.666H192V277.333Z" fill="#BFB6F9"/>
<path d="M341.333 277.333H320V298.666H341.333V277.333Z" fill="#BFB6F9"/>
<path d="M170.667 277.333H192V298.666H170.667V277.333Z" fill="#BFB6F9"/>
<path d="M362.667 277.333H341.333V298.666H362.667V277.333Z" fill="#BFB6F9"/>
<path d="M149.333 277.333H170.667V298.666H149.333V277.333Z" fill="#BFB6F9"/>
<path d="M384 277.333H362.667V298.666H384V277.333Z" fill="#BFB6F9"/>
<path d="M128 277.333H149.333V298.666H128V277.333Z" fill="#BFB6F9"/>
<path d="M426.667 320H405.333V341.333H426.667V320Z" fill="#BFB6F9"/>
<path d="M85.3333 320H106.667V341.333H85.3333V320Z" fill="#BFB6F9"/>
<path d="M405.333 341.333H384V362.666H405.333V341.333Z" fill="#BFB6F9"/>
<path d="M106.667 341.333H128V362.666H106.667V341.333Z" fill="#BFB6F9"/>
<path d="M384 362.667H362.667V384H384V362.667Z" fill="#BFB6F9"/>
<path d="M128 362.667H149.333V384H128V362.667Z" fill="#BFB6F9"/>
<path d="M320 384H298.667V405.333H320V384Z" fill="#BFB6F9"/>
<path d="M192 384H213.333V405.333H192V384Z" fill="#BFB6F9"/>
<path d="M341.333 384H320V405.333H341.333V384Z" fill="#BFB6F9"/>
<path d="M170.667 384H192V405.333H170.667V384Z" fill="#BFB6F9"/>
<path d="M362.667 384H341.333V405.333H362.667V384Z" fill="#BFB6F9"/>
<path d="M149.333 384H170.667V405.333H149.333V384Z" fill="#BFB6F9"/>
<path d="M277.333 405.333H256V426.667H277.333V405.333Z" fill="#A38BD1"/>
<path d="M234.667 405.333H256V426.667H234.667V405.333Z" fill="#A38BD1"/>
<path d="M298.667 405.333H277.333V426.667H298.667V405.333Z" fill="#A38BD1"/>
<path d="M213.333 405.333H234.667V426.667H213.333V405.333Z" fill="#A38BD1"/>
<path d="M320 405.333H298.667V426.667H320V405.333Z" fill="#A38BD1"/>
<path d="M192 405.333H213.333V426.667H192V405.333Z" fill="#A38BD1"/>
<path d="M469.333 213.333H448V234.667H469.333V213.333Z" fill="#50527D"/>
<path d="M42.6667 213.333H64V234.667H42.6667V213.333Z" fill="#50527D"/>
<path d="M469.333 234.667H448V256H469.333V234.667Z" fill="#50527D"/>
<path d="M42.6667 234.667H64V256H42.6667V234.667Z" fill="#50527D"/>
<path d="M469.333 256H448V277.333H469.333V256Z" fill="#50527D"/>
<path d="M42.6667 256H64V277.333H42.6667V256Z" fill="#50527D"/>
<path d="M469.333 277.333H448V298.667H469.333V277.333Z" fill="#50527D"/>
<path d="M42.6667 277.333H64V298.667H42.6667V277.333Z" fill="#50527D"/>
<path d="M426.667 341.333H405.333V362.667H426.667V341.333Z" fill="#50527D"/>
<path d="M85.3333 341.333H106.667V362.667H85.3333V341.333Z" fill="#50527D"/>
<path d="M405.333 362.667H384V384H405.333V362.667Z" fill="#50527D"/>
<path d="M106.667 362.667H128V384H106.667V362.667Z" fill="#50527D"/>
<path d="M384 384H362.667V405.333H384V384Z" fill="#50527D"/>
<path d="M128 384H149.333V405.333H128V384Z" fill="#50527D"/>
<path d="M341.333 405.333H320V426.667H341.333V405.333Z" fill="#50527D"/>
<path d="M170.667 405.333H192V426.667H170.667V405.333Z" fill="#50527D"/>
<path d="M362.667 405.333H341.333V426.667H362.667V405.333Z" fill="#50527D"/>
<path d="M149.333 405.333H170.667V426.667H149.333V405.333Z" fill="#50527D"/>
<path d="M448 213.333H426.667V234.667H448V213.333Z" fill="#383B5E"/>
<path d="M64 213.333H85.3334V234.667H64V213.333Z" fill="#383B5E"/>
<path d="M405.333 234.667H384V256H405.333V234.667Z" fill="#383B5E"/>
<path d="M106.667 234.667H128V256H106.667V234.667Z" fill="#383B5E"/>
<path d="M426.667 234.667H405.333V256H426.667V234.667Z" fill="#383B5E"/>
<path d="M85.3333 234.667H106.667V256H85.3333V234.667Z" fill="#383B5E"/>
<path d="M277.333 256H256V277.333H277.333V256Z" fill="#383B5E"/>
<path d="M234.667 256H256V277.333H234.667V256Z" fill="#383B5E"/>
<path d="M298.667 256H277.333V277.333H298.667V256Z" fill="#383B5E"/>
<path d="M213.333 256H234.667V277.333H213.333V256Z" fill="#383B5E"/>
<path d="M320 256H298.667V277.333H320V256Z" fill="#383B5E"/>
<path d="M192 256H213.333V277.333H192V256Z" fill="#383B5E"/>
<path d="M341.333 256H320V277.333H341.333V256Z" fill="#383B5E"/>
<path d="M170.667 256H192V277.333H170.667V256Z" fill="#383B5E"/>
<path d="M362.667 256H341.333V277.333H362.667V256Z" fill="#383B5E"/>
<path d="M149.333 256H170.667V277.333H149.333V256Z" fill="#383B5E"/>
<path d="M384 256H362.667V277.333H384V256Z" fill="#383B5E"/>
<path d="M128 256H149.333V277.333H128V256Z" fill="#383B5E"/>
<path d="M448 298.667H426.667V320H448V298.667Z" fill="#383B5E"/>
<path d="M64 298.667H85.3334V320H64V298.667Z" fill="#383B5E"/>
<path d="M448 320H426.667V341.333H448V320Z" fill="#383B5E"/>
<path d="M64 320H85.3334V341.333H64V320Z" fill="#383B5E"/>
<path d="M277.333 426.667H256V448H277.333V426.667Z" fill="#383B5E"/>
<path d="M234.667 426.667H256V448H234.667V426.667Z" fill="#383B5E"/>
<path d="M298.667 426.667H277.333V448H298.667V426.667Z" fill="#383B5E"/>
<path d="M213.333 426.667H234.667V448H213.333V426.667Z" fill="#383B5E"/>
<path d="M320 426.667H298.667V448H320V426.667Z" fill="#383B5E"/>
<path d="M192 426.667H213.333V448H192V426.667Z" fill="#383B5E"/>
<path d="M341.333 426.667H320V448H341.333V426.667Z" fill="#383B5E"/>
<path d="M170.667 426.667H192V448H170.667V426.667Z" fill="#383B5E"/>
<path d="M213.333 85.3335H192V106.667H213.333V85.3335Z" fill="#EBFBE5"/>
<path d="M234.667 85.3335H213.333V106.667H234.667V85.3335Z" fill="#EBFBE5"/>
<path d="M256 85.3335H234.667V106.667H256V85.3335Z" fill="#D0FBB2"/>
<path d="M192 106.667H170.667V128H192V106.667Z" fill="#EBFBE5"/>
<path d="M213.333 106.667H192V128H213.333V106.667Z" fill="#D0FBB2"/>
<path d="M234.667 106.667H213.333V128H234.667V106.667Z" fill="#EBFBE5"/>
<path d="M256 106.667H234.667V128H256V106.667Z" fill="#EBFBE5"/>
<path d="M106.667 128H85.3334V149.333H106.667V128Z" fill="#004802"/>
<path d="M149.333 128H128V149.333H149.333V128Z" fill="#57DF37"/>
<path d="M170.667 128H149.333V149.333H170.667V128Z" fill="#57DF37"/>
<path d="M170.667 106.667H149.333V128H170.667V106.667Z" fill="#57DF37"/>
<path d="M192 128H170.667V149.333H192V128Z" fill="#EBFBE5"/>
<path d="M213.333 128H192V149.333H213.333V128Z" fill="#EBFBE5"/>
<path d="M234.667 128H213.333V149.333H234.667V128Z" fill="#EBFBE5"/>
<path d="M256 128H234.667V149.333H256V128Z" fill="#EBFBE5"/>
<path d="M106.667 149.333H85.3334V170.667H106.667V149.333Z" fill="#57DF37"/>
<path d="M128 149.333H106.667V170.667H128V149.333Z" fill="#FF9EA6"/>
<path d="M149.333 149.333H128V170.667H149.333V149.333Z" fill="#FF9EA6"/>
<path d="M170.667 149.333H149.333V170.667H170.667V149.333Z" fill="#FF9EA6"/>
<path d="M192 149.333H170.667V170.667H192V149.333Z" fill="#57DF37"/>
<path d="M213.333 149.333H192V170.667H213.333V149.333Z" fill="#7EFC65"/>
<path d="M234.667 149.333H213.333V170.667H234.667V149.333Z" fill="#7EFC65"/>
<path d="M256 149.333H234.667V170.667H256V149.333Z" fill="#7EFC65"/>
<path d="M85.3333 170.667H64V192H85.3333V170.667Z" fill="#7EFC65"/>
<path d="M106.667 170.667H85.3334V192H106.667V170.667Z" fill="#EBFBE5"/>
<path d="M128 170.667H106.667V192H128V170.667Z" fill="#FF9EA6"/>
<path d="M149.333 170.667H128V192H149.333V170.667Z" fill="#57DF37"/>
<path d="M170.667 170.667H149.333V192H170.667V170.667Z" fill="#EBFBE5"/>
<path d="M192 170.667H170.667V192H192V170.667Z" fill="#57DF37"/>
<path d="M213.333 170.667H192V192H213.333V170.667Z" fill="#EBFBE5"/>
<path d="M234.667 170.667H213.333V192H234.667V170.667Z" fill="#57DF37"/>
<path d="M256 170.667H234.667V192H256V170.667Z" fill="#7EFC65"/>
<path d="M85.3333 192H64V213.333H85.3333V192Z" fill="#7EFC65"/>
<path d="M106.667 192H85.3334V213.333H106.667V192Z" fill="#D0FBB2"/>
<path d="M128 192H106.667V213.333H128V192Z" fill="#EBFBE5"/>
<path d="M149.333 192H128V213.333H149.333V192Z" fill="#57DF37"/>
<path d="M170.667 192H149.333V213.333H170.667V192Z" fill="#D0FBB2"/>
<path d="M192 192H170.667V213.333H192V192Z" fill="#D0FBB2"/>
<path d="M213.333 192H192V213.333H213.333V192Z" fill="#D0FBB2"/>
<path d="M234.667 192H213.333V213.333H234.667V192Z" fill="#EBFBE5"/>
<path d="M256 192H234.667V213.333H256V192Z" fill="#D0FBB2"/>
<path d="M106.667 213.333H85.3334V234.667H106.667V213.333Z" fill="#D0FBB2"/>
<path d="M128 213.333H106.667V234.667H128V213.333Z" fill="#EBFBE5"/>
<path d="M149.333 213.333H128V234.667H149.333V213.333Z" fill="#57DF37"/>
<path d="M170.667 213.333H149.333V234.667H170.667V213.333Z" fill="#D0FBB2"/>
<path d="M192 213.333H170.667V234.667H192V213.333Z" fill="#EBFBE5"/>
<path d="M213.333 213.333H192V234.667H213.333V213.333Z" fill="#EBFBE5"/>
<path d="M234.667 213.333H213.333V234.667H234.667V213.333Z" fill="#D0FBB2"/>
<path d="M256 213.333H234.667V234.667H256V213.333Z" fill="#EBFBE5"/>
<path d="M149.333 234.667H128V256H149.333V234.667Z" fill="#EBFBE5"/>
<path d="M170.667 234.667H149.333V256H170.667V234.667Z" fill="#EBFBE5"/>
<path d="M192 234.667H170.667V256H192V234.667Z" fill="#D0FBB2"/>
<path d="M213.333 234.667H192V256H213.333V234.667Z" fill="#EBFBE5"/>
<path d="M234.667 234.667H213.333V256H234.667V234.667Z" fill="#D0FBB2"/>
<path d="M256 234.667H234.667V256H256V234.667Z" fill="#FF9EA6"/>
<path d="M341.333 128H320V149.333H341.333V128Z" fill="#FF9EA6"/>
<path d="M362.667 128H341.333V149.333H362.667V128Z" fill="#57DF37"/>
<path d="M362.667 106.667H341.333V128H362.667V106.667Z" fill="#57DF37"/>
<path d="M384 128H362.667V149.333H384V128Z" fill="#D0FBB2"/>
<path d="M341.333 149.333H320V170.667H341.333V149.333Z" fill="#FF9EA6"/>
<path d="M362.667 149.333H341.333V170.667H362.667V149.333Z" fill="#FF9EA6"/>
<path d="M384 149.333H362.667V170.667H384V149.333Z" fill="#7EFC65"/>
<path d="M341.333 170.667H320V192H341.333V170.667Z" fill="#57DF37"/>
<path d="M362.667 170.667H341.333V192H362.667V170.667Z" fill="#FF9EA6"/>
<path d="M384 170.667H362.667V192H384V170.667Z" fill="#EBFBE5"/>
</svg>
